<?xml version="1.0" ?>
<!-- Uploaded to: SVG Repo, www.svgrepo.com, Generator: SVG Repo Mixer Tools -->
<svg fill="#000000" width="800px" height="800px" viewBox="0 0 64 64" xmlns="http://www.w3.org/2000/svg">
<g id="dead">
<path d="M8,15a3,3,0,1,0-3,3A3.0033,3.0033,0,0,0,8,15ZM5,16a1,1,0,1,1,1-1A1.0006,1.0006,0,0,1,5,16Z"/>
<path d="M37.0562,11.7911l.7846-.7843A3.4985,3.4985,0,0,0,40.93,5.0879,3.4531,3.4531,0,0,0,39.877,4.373,3.4531,3.4531,0,0,0,39.1621,3.32a3.5,3.5,0,0,0-5.7715,3.65L30.8545,9.5068,27.7568,6.4092A3.4985,3.4985,0,0,0,21.8379,3.32,3.4531,3.4531,0,0,0,21.123,4.373a3.4531,3.4531,0,0,0-1.0527.7149,3.5,3.5,0,0,0,3.65,5.7715l.9929.9928a24,24,0,1,0,12.3426-.0611ZM23.9238,8.6484a.9959.9959,0,0,0-.5527.167A1.5,1.5,0,0,1,21.4844,6.502a1.4814,1.4814,0,0,1,.6777-.379.9988.9988,0,0,0,.7109-.7109,1.4814,1.4814,0,0,1,.379-.6777,1.4985,1.4985,0,0,1,2.455,1.6074,1,1,0,0,0,.2246,1.0713L36.8369,18.3184a.9981.9981,0,0,0,1.0713.2246,1.4984,1.4984,0,0,1,1.6074,2.455,1.4814,1.4814,0,0,1-.6777.379.9988.9988,0,0,0-.7109.7109,1.4814,1.4814,0,0,1-.379.6777,1.5,1.5,0,0,1-2.3134-1.8867.9985.9985,0,0,0-.126-1.26L24.6309,8.9414A.9984.9984,0,0,0,23.9238,8.6484ZM31,57a21.9982,21.9982,0,0,1-4.64-43.5018l.2517.2518-2.8906,2.8906a3.5,3.5,0,0,0-3.65,5.7715,3.4531,3.4531,0,0,0,1.0527.7149,3.4612,3.4612,0,0,0,3.1895,2.0761,3.4934,3.4934,0,0,0,3.4443-4.1123l3.0968-3.0985,2.537,2.537a3.5006,3.5006,0,0,0,5.7715,3.65,3.4531,3.4531,0,0,0,.7149-1.0527,3.4531,3.4531,0,0,0,1.0527-.7149,3.4982,3.4982,0,0,0-3.0889-5.9189l-2.744-2.7441.3032-.3029A21.9991,21.9991,0,0,1,31,57Z"/>
<path d="M54.7,56.4561a1,1,0,0,0-1.4141,0l-.7671.767-.767-.767a1,1,0,1,0-1.4141,1.414l.7671.7671-.7671.7671a1,1,0,1,0,1.4141,1.4141l.767-.7671.7671.7671A1,1,0,1,0,54.7,59.4043l-.7671-.7671L54.7,57.87A1,1,0,0,0,54.7,56.4561Z"/>
<path d="M22.2861,31.8184A1,1,0,1,0,23.7,30.4043l-.7671-.7671L23.7,28.87a1,1,0,1,0-1.4141-1.414l-.7671.767-.767-.767a1,1,0,0,0-1.4141,1.414l.7671.7671-.7671.7671a1,1,0,1,0,1.4141,1.4141l.767-.7671Z"/>
<path d="M42.7,27.4561a1,1,0,0,0-1.4141,0l-.7671.767-.767-.767a1,1,0,1,0-1.4141,1.414l.7671.7671-.7671.7671a1,1,0,1,0,1.4141,1.4141l.767-.7671.7671.7671A1,1,0,1,0,42.7,30.4043l-.7671-.7671L42.7,28.87A1,1,0,0,0,42.7,27.4561Z"/>
<circle cx="58" cy="48" r="1"/>
<path d="M31.0176,34c-3.5537,0-6.8057,1.3965-8.4873,3.6445A2.7446,2.7446,0,0,0,24.707,42H37.3193a2.6525,2.6525,0,0,0,2.3975-1.5215,2.8064,2.8064,0,0,0-.33-2.9863C37.68,35.3379,34.4727,34,31.0176,34Z"/>
</g>
</svg>