<?xml version="1.0" ?>
<!-- Uploaded to: SVG Repo, www.svgrepo.com, Generator: SVG Repo Mixer Tools -->
<svg fill="#000000" width="800px" height="800px" viewBox="0 0 64 64" xmlns="http://www.w3.org/2000/svg">
<g id="sunglasses">
<path d="M8,15a3,3,0,1,0-3,3A3.0033,3.0033,0,0,0,8,15ZM5,16a1,1,0,1,1,1-1A1.0009,1.0009,0,0,1,5,16Z"/>
<path d="M36.8464,11.7374,38.97,3.2422A1,1,0,0,0,38,2H24a1,1,0,0,0-.97,1.2422l2.1239,8.4958a23.9988,23.9988,0,1,0,11.6927-.0006ZM31,57a21.9925,21.9925,0,0,1-5.3616-43.3233L27.03,19.2422a1,1,0,0,0,1.94-.4844L25.2808,4H36.7192L33.03,18.7578a1,1,0,1,0,1.94.4844l1.3914-5.5657A21.9926,21.9926,0,0,1,31,57Z"/>
<path d="M54.7,56.4561a1,1,0,0,0-1.4141,0l-.7668.7669-.7669-.7669a1,1,0,0,0-1.414,1.414l.7669.7671-.7669.7671a1,1,0,1,0,1.414,1.4141l.7669-.767.7668.767A1,1,0,1,0,54.7,59.4043l-.767-.7671L54.7,57.87A1,1,0,0,0,54.7,56.4561Z"/>
<circle cx="58" cy="48" r="1"/>
<path d="M39.3345,39.37a22.5127,22.5127,0,0,1-16.669,0,1,1,0,1,0-.7832,1.84,24.1164,24.1164,0,0,0,18.2354,0,1,1,0,1,0-.7832-1.84Z"/>
<path d="M43.9419,23H18.0581A7.0659,7.0659,0,0,0,11,30.0586v3.4668A3.4784,3.4784,0,0,0,14.4746,37h9.4673A7.0659,7.0659,0,0,0,31,29.9414,7.0659,7.0659,0,0,0,38.0581,37h9.4673A3.4784,3.4784,0,0,0,51,33.5254V30.0586A7.0659,7.0659,0,0,0,43.9419,23ZM18.707,27.707l-2.5,2.5a1,1,0,0,1-1.414-1.414l2.5-2.5a1,1,0,0,1,1.414,1.414ZM31,26.4746A3.4363,3.4363,0,0,0,30.66,25h.681A3.4363,3.4363,0,0,0,31,26.4746Zm7.707,1.2324-2.5,2.5a1,1,0,0,1-1.414-1.414l2.5-2.5a1,1,0,0,1,1.414,1.414Z"/>
</g>
</svg>